<?xml version="1.0" encoding="utf-8"?>
<!-- Generator: Adobe Illustrator 19.0.0, SVG Export Plug-In . SVG Version: 6.00 Build 0)  -->
<svg version="1.1" id="Layer_1" xmlns="http://www.w3.org/2000/svg" xmlns:xlink="http://www.w3.org/1999/xlink" x="0px" y="0px"
	 viewBox="0 0 465.6 443.9" style="enable-background:new 0 0 465.6 443.9;" xml:space="preserve">
<style type="text/css">
	.st0{fill:#D8D8D2;}
	.st1{fill:#FFFFFF;}
	.st2{fill:#3D4150;}
	.st3{fill:#FFFFFF;stroke:#3D4150;stroke-width:8;stroke-miterlimit:10;}
	.st4{fill:#FFFFFF;stroke:#3D4150;stroke-width:8;stroke-linecap:round;stroke-miterlimit:10;}
	.st5{fill:none;stroke:#3D4150;stroke-width:8;stroke-linecap:round;stroke-miterlimit:10;}
	.st6{fill:#FDE766;}
	.st7{fill:none;stroke:#3D4150;stroke-width:10;stroke-linecap:round;stroke-miterlimit:10;}
	.st8{fill:none;stroke:#3D4150;stroke-width:8;stroke-miterlimit:10;}
	.st9{fill:none;stroke:#3D4150;stroke-width:8;stroke-linejoin:round;stroke-miterlimit:10;}
	.st10{fill:#3D4251;}
</style>
<path id="XMLID_1_" class="st0" d="M233,439.9c101.3,0,185.3-207.3,220.6-309.9c11.3-32.9-9.7-67.7-46.8-77.5
	C364.5,41.2,303.9,29.7,233,29.2c-70.9,0.5-131.4,12-173.8,23.3C22.1,62.3,1.1,97.1,12.4,130C47.8,232.6,131.7,439.9,233,439.9z"/>
<path id="XMLID_37_" class="st1" d="M372.6,311.8l-10.7-9.6L233,323l-128.8-20.8l-10.7,9.6c0,0,64.2,127.6,139.3,128.1v0
	c0.1,0,0.2,0,0.2,0c0.1,0,0.2,0,0.2,0v0C308.4,439.3,372.6,311.8,372.6,311.8z"/>
<g id="XMLID_45_">
	<path id="XMLID_3_" class="st2" d="M233,443.9c-45.6,0-92.2-39.8-138.5-118.4C56.7,261.1,26.9,184.4,8.6,131.3
		c-5.5-15.8-4.1-32.8,3.9-47.8c9-16.9,25.6-29.6,45.7-34.9C97.5,38.2,159.6,25.7,233,25.2c73.4,0.5,135.6,13,174.9,23.4
		c20,5.3,36.7,18,45.7,34.9c8,15,9.4,31.9,3.9,47.8c-18.3,53.1-48,129.8-85.9,194.1C325.2,404,278.6,443.9,233,443.9z M233,33.2
		C160.5,33.7,99.1,46.1,60.2,56.4c-17.9,4.8-32.7,16-40.7,30.9c-6.9,13-8.1,27.7-3.4,41.4c18.2,52.7,47.7,128.9,85.2,192.7
		c44.7,76,89,114.5,131.6,114.5s86.9-38.5,131.6-114.5c37.5-63.7,67.1-140,85.2-192.7c4.7-13.7,3.5-28.4-3.4-41.4
		c-7.9-14.9-22.8-26.2-40.7-30.9C367,46.1,305.5,33.7,233,33.2z"/>
</g>
<line id="XMLID_133_" class="st3" x1="232.6" y1="364.7" x2="232.6" y2="439.9"/>
<path id="XMLID_307_" class="st4" d="M281.6,343.9c0,19.4-22,35.1-49,35.1s-49-15.7-49-35.1c0-19.4,21.9-35.1,49-35.1
	S281.6,324.5,281.6,343.9z"/>
<path id="XMLID_7_" class="st4" d="M232.7,351c48.9,0,83.4-18.2,93.8-22.9c19.4-8.7,29.6-16.5,34.1-21.3c2-2.1,2.2-5.3,0.5-7.7
	c-7.6-10.6-14.5-11.5-14.6-11.5c-1-0.1-57.2-0.1-113.5-0.1l0,0c-0.1,0-0.2,0-0.2,0s-0.2,0-0.2,0l0,0c-56.3,0-112.4,0-113.5,0.1
	c-0.1,0-7,0.9-14.6,11.5c-1.7,2.3-1.4,5.6,0.5,7.7c4.5,4.8,14.7,12.7,34.1,21.3C149.5,332.8,183.8,351,232.7,351z"/>
<path id="XMLID_31_" class="st1" d="M337.4,267.9c24.9-25.2-2.7-32.1-2.7-32.1L233,220.5l-101.7,15.2c0,0-27.6,7-2.7,32.1
	c0,0-19.5,3.5,0,21.8c19.5,18.3,55.1,35.8,104.3,38.9c49.2-3.1,84.8-20.6,104.3-38.9C356.9,271.4,337.4,267.9,337.4,267.9z"/>
<path id="XMLID_146_" class="st5" d="M131.4,235.7c0,0-14.8,0-12.8,17.3c0.7,6,3.5,8.3,7.2,12.5c0,0-2.1,0.1-6.2,6.5
	c-3.3,5.2-2.3,13.6,8.3,20c16.8,10.2,53.9,33.2,104.7,33.6c50.7-0.4,87.8-23.3,104.7-33.6c10.6-6.4,11.7-14.8,8.3-20
	c-4.1-6.4-6.2-6.5-6.2-6.5c3.7-4.2,6.5-6.4,7.2-12.5c2-17.3-12.8-17.3-12.8-17.3l-7-1.2"/>
<path id="XMLID_145_" class="st5" d="M339.4,266c-17.2,10.5-55.1,35.2-106.8,35.6c-51.8-0.4-89.7-25.1-106.8-35.6"/>
<path id="XMLID_41_" class="st4" d="M233,280.4c-75.8,0-137.2-61.4-137.2-137.2S157.2,5.9,233,5.9s137.2,61.4,137.2,137.2
	c0,11.8-137.2,1.5-137.2,1.5"/>
<g id="XMLID_95_">
	<g id="XMLID_96_">
		<path id="XMLID_97_" class="st6" d="M156.4,137.4c0,0-19.1,41,3.6,81.3l4.6-19.6c0,0,20.3,33.3,56,15.3c0.8-0.4,6.3,2.3,7.2,2.1
			c0,0,65,54.9,127.1-15.7c0,0,37.7-61.2-5.3-125.1c0,0-76-14.8-186.7,48.7C160,126.1,159.4,135.5,156.4,137.4z"/>
	</g>
</g>
<path id="XMLID_82_" class="st7" d="M352.7,75.9c0,0,30,48.7,9.9,107.1"/>
<polygon id="XMLID_214_" class="st1" points="319.6,51.4 328.2,75.9 356.7,73 345.7,48.8 "/>
<line id="XMLID_78_" class="st8" x1="191.5" y1="220.5" x2="191.5" y2="241.4"/>
<line id="XMLID_2_" class="st8" x1="239.6" y1="224.5" x2="239.6" y2="244.9"/>
<path id="XMLID_79_" class="st9" d="M150.7,207.7c4.1,8.6,17.3,23.3,30.7,29.4c6.1,2.8,11.7,6.2,18,4c10.4-3.6,27.2-6.9,37.4,3.8
	c15.5,16.3,95.5,11.4,118.8-44.9c-41.9,54.2-100.9,39.3-116.4,23c-10.2-10.7-27-7.4-37.4-3.8c-6.3,2.1-13.3,0.6-18-4
	c-34.3-33.5-27.2-69-22.4-83c1.3-3.8,3.9-7.1,7.4-9.2c140.1-85.7,197.3-30.1,189.5-51.3l-8.6-14.2c-2.7-4.5-7.5-7.4-12.7-7.9
	c-115.1-9.6-190.3,70.3-190.3,70.3"/>
<g id="XMLID_150_">
	<path id="XMLID_151_" class="st3" d="M156.4,164.4c5.8,30.3,18.5,53.3-7.8,58.4s-48.6-15.8-54.5-46.1s7.1-58.5,33.4-63.6
		C153.9,108,150.6,134.1,156.4,164.4z"/>
</g>
<g id="XMLID_202_">
	<circle id="XMLID_203_" class="st10" cx="161.6" cy="366.5" r="15.5"/>
</g>
<line id="XMLID_141_" class="st3" x1="103.5" y1="302.1" x2="88.6" y2="311.8"/>
<line id="XMLID_396_" class="st3" x1="362.1" y1="302.1" x2="377" y2="311.8"/>
</svg>
